<?xml version="1.0" standalone="no"?>
<!DOCTYPE svg PUBLIC "-//W3C//DTD SVG 20010904//EN"
 "http://www.w3.org/TR/2001/REC-SVG-20010904/DTD/svg10.dtd">
<svg version="1.0" xmlns="http://www.w3.org/2000/svg"
 width="468pt" height="120pt" viewBox="0 0 468 120"
 preserveAspectRatio="xMidYMid meet">
<metadata>
Created by potrace 1.7, written by Peter Selinger 2001-2005
</metadata>
<g transform="translate(0,120) scale(0.085401,-0.085401)"
fill="#000000" stroke="none">
<path d="M3451 1381 c-11 -11 -23 -37 -26 -58 -16 -87 -48 -199 -62 -215 -20
-22 -45 -22 -102 -3 -53 19 -76 7 -66 -34 10 -38 21 -48 70 -60 77 -19 77 -17
-29 -299 -68 -182 -128 -383 -121 -409 7 -28 36 -30 57 -6 15 19 68 171 68
197 0 22 104 331 134 401 15 32 32 62 38 66 6 4 35 5 65 2 56 -6 57 -5 54 42
-4 50 -12 64 -41 70 -38 8 -38 24 -5 136 14 46 27 107 28 134 2 45 0 50 -20
53 -12 2 -31 -6 -42 -17z"/>
<path d="M6 1323 c-15 -15 -5 -171 24 -388 6 -44 15 -118 20 -165 5 -47 14
-119 19 -160 40 -324 52 -441 46 -486 -7 -61 7 -104 34 -104 15 0 25 15 41 58
26 67 78 266 88 336 12 84 26 63 45 -68 18 -131 45 -247 71 -308 20 -46 46
-51 46 -10 0 16 9 37 20 47 33 30 56 135 111 490 6 39 21 126 34 195 32 170
49 321 41 375 -4 25 -10 45 -14 45 -7 0 -50 -190 -71 -315 -6 -33 -19 -107
-30 -165 -10 -58 -25 -139 -31 -180 -32 -195 -58 -285 -81 -285 -9 0 -16 16
-20 45 -4 25 -12 81 -18 125 -6 44 -15 112 -21 150 -6 39 -15 108 -20 155 -12
91 -25 116 -59 105 -25 -8 -34 -39 -61 -205 -27 -164 -33 -193 -46 -197 -12
-4 -30 74 -38 167 -3 30 -10 89 -16 130 -6 41 -15 107 -20 145 -15 125 -51
359 -62 413 -11 53 -20 67 -32 55z"/>
<path d="M4013 1302 c-6 -4 -14 -18 -17 -32 -7 -28 -60 -427 -76 -570 -6 -52
-16 -133 -21 -180 -10 -85 -14 -226 -7 -310 2 -32 8 -46 19 -48 26 -5 211 76
244 107 17 16 41 34 53 41 13 6 21 14 18 17 -5 6 -38 -3 -189 -49 -82 -25 -93
-19 -72 41 11 32 15 86 15 204 0 88 4 188 9 221 6 34 19 124 31 201 12 77 26
162 31 188 12 62 12 119 -1 151 -10 27 -17 31 -37 18z"/>
<path d="M4622 1273 c-6 -10 -17 -52 -26 -93 -9 -41 -25 -104 -36 -140 -11
-36 -23 -90 -26 -120 -3 -30 -37 -174 -74 -320 -38 -146 -73 -290 -78 -320 -5
-30 -15 -76 -23 -103 -12 -41 -11 -49 3 -63 14 -14 18 -14 47 0 17 9 86 28
154 41 119 25 169 46 175 77 5 26 -35 28 -142 7 -138 -26 -146 -26 -146 10 0
41 106 449 170 651 56 179 61 208 53 300 -6 68 -11 85 -25 88 -9 2 -21 -5 -26
-15z"/>
<path d="M2170 1241 c-10 -19 -7 -55 20 -281 5 -41 12 -103 16 -136 l7 -61
-39 -7 c-100 -19 -186 -93 -226 -195 -17 -44 -22 -77 -22 -151 0 -110 13 -143
77 -187 34 -24 49 -27 116 -28 68 0 84 4 144 34 51 26 69 40 73 60 3 14 10 43
15 64 6 20 7 42 4 47 -3 5 -10 39 -15 77 -5 37 -18 127 -30 198 -24 154 -37
249 -54 405 -13 120 -24 153 -56 170 -15 8 -21 6 -30 -9z m58 -594 c11 -13 29
-82 57 -226 23 -112 19 -116 -111 -116 -95 0 -96 0 -125 33 -25 28 -29 40 -29
90 0 66 22 147 48 175 38 43 138 71 160 44z"/>
<path d="M1787 1118 c-9 -40 -23 -109 -32 -153 -9 -44 -23 -118 -31 -165 -17
-97 -69 -313 -84 -348 -6 -13 -14 -20 -20 -17 -9 6 -109 207 -167 335 -14 30
-40 87 -58 125 -18 39 -42 98 -55 132 -27 74 -42 90 -60 67 -9 -10 -13 -41
-11 -97 5 -152 3 -197 -8 -265 -7 -37 -17 -96 -23 -132 -5 -36 -23 -134 -39
-219 -16 -84 -27 -162 -24 -172 9 -28 34 -23 53 11 21 37 27 37 42 0 13 -31
24 -37 35 -19 10 16 25 209 29 369 4 194 17 219 64 129 110 -207 133 -258 148
-339 9 -47 22 -92 30 -100 12 -12 19 -10 50 20 20 19 42 48 50 63 22 42 116
409 111 434 -2 13 4 62 14 110 51 243 55 303 19 303 -15 0 -22 -15 -33 -72z"/>
<path d="M3067 884 c-3 -4 -75 -19 -159 -35 -84 -15 -180 -35 -213 -43 -32 -9
-67 -16 -77 -16 -10 0 -24 -12 -31 -27 -10 -22 -9 -28 7 -37 10 -6 32 -22 48
-35 27 -22 188 -136 292 -206 22 -15 35 -30 30 -35 -5 -5 -77 -37 -159 -70
-165 -67 -221 -99 -279 -159 -41 -42 -41 -67 1 -56 14 3 109 47 212 96 185 90
249 118 306 135 32 10 47 47 23 57 -21 7 -341 242 -360 263 -37 42 -26 50 117
83 171 39 258 66 263 80 4 12 -10 15 -21 5z"/>
<path d="M5330 861 c-41 -15 -108 -44 -148 -65 -39 -20 -97 -43 -127 -51 -68
-17 -72 -19 -90 -55 -14 -27 -13 -29 11 -45 14 -9 30 -28 35 -43 15 -38 68
-209 80 -257 6 -22 16 -47 23 -55 8 -8 23 -33 34 -56 26 -52 49 -71 64 -56 14
14 -18 155 -64 289 -45 133 -43 136 97 98 53 -15 103 -24 111 -21 22 8 17 50
-9 74 -14 14 -46 26 -83 32 -162 28 -180 47 -79 85 182 68 294 124 295 148 0
16 -79 5 -150 -22z"/>
<path d="M839 783 c-16 -42 0 -288 30 -458 6 -33 20 -73 32 -88 12 -16 24 -48
28 -71 13 -86 17 116 4 219 -7 55 -13 143 -13 195 -1 86 -17 191 -35 219 -12
20 -35 11 -46 -16z"/>
<path d="M3564 685 c-4 -9 -1 -62 5 -118 7 -56 11 -140 10 -187 -1 -47 1 -107
5 -135 16 -117 16 -116 38 -113 33 5 42 57 29 153 -6 44 -16 136 -22 205 -15
173 -21 204 -42 208 -9 2 -20 -4 -23 -13z"/>
</g>
</svg>
