0
SECTION
2
HEADER
0
ENDSEC
0
SECTION
2
BLOCKS
0
BLOCK
2
Plane
8
Meshes
70
64
10
0.0
20
0.0
30
0.0
3
Plane
0
POLYLINE
66
1
8
Meshes
62
254
70
64
71
50
72
53
0
VERTEX
8
Meshes
10
1.000000
20
1.000000
30
0.000000
70
192
0
VERTEX
8
Meshes
10
1.000000
20
-1.000000
30
0.000000
70
192
0
VERTEX
8
Meshes
10
-1.000000
20
-1.000000
30
0.000000
70
192
0
VERTEX
8
Meshes
10
-1.000000
20
1.000000
30
0.000000
70
192
0
VERTEX
8
Meshes
10
0.000475
20
0.000059
30
1.022809
70
192
0
VERTEX
8
Meshes
10
-0.499763
20
-0.499970
30
0.511404
70
192
0
VERTEX
8
Meshes
10
-0.499763
20
0.500030
30
0.511404
70
192
0
VERTEX
8
Meshes
10
-0.249644
20
-0.505450
30
0.767107
70
192
0
VERTEX
8
Meshes
10
-0.249644
20
0.505539
30
0.767107
70
192
0
VERTEX
8
Meshes
10
-0.249644
20
0.505539
30
0.767107
70
192
0
VERTEX
8
Meshes
10
-0.249644
20
-0.505450
30
0.767107
70
192
0
VERTEX
8
Meshes
10
-0.499763
20
0.500030
30
0.511404
70
192
0
VERTEX
8
Meshes
10
-0.499763
20
-0.499970
30
0.511404
70
192
0
VERTEX
8
Meshes
10
0.000475
20
0.000059
30
1.022809
70
192
0
VERTEX
8
Meshes
10
-1.000000
20
1.000000
30
0.000000
70
192
0
VERTEX
8
Meshes
10
-1.000000
20
-1.000000
30
0.000000
70
192
0
VERTEX
8
Meshes
10
-1.237194
20
-1.000000
30
0.218949
70
192
0
VERTEX
8
Meshes
10
-1.237194
20
1.000000
30
0.218949
70
192
0
VERTEX
8
Meshes
10
-0.236720
20
0.000059
30
1.241757
70
192
0
VERTEX
8
Meshes
10
-0.736957
20
-0.499970
30
0.730353
70
192
0
VERTEX
8
Meshes
10
-0.736957
20
0.500030
30
0.730353
70
192
0
VERTEX
8
Meshes
10
-0.486838
20
-0.505450
30
0.986055
70
192
0
VERTEX
8
Meshes
10
-0.486838
20
0.505539
30
0.986055
70
192
0
VERTEX
8
Meshes
10
-0.718094
20
0.308566
30
1.020228
70
192
0
VERTEX
8
Meshes
10
-0.718094
20
-0.308512
30
1.020228
70
192
0
VERTEX
8
Meshes
10
-0.870759
20
0.305204
30
0.864155
70
192
0
VERTEX
8
Meshes
10
-0.870759
20
-0.305167
30
0.864155
70
192
0
VERTEX
8
Meshes
10
-0.565429
20
0.000036
30
1.176301
70
192
0
VERTEX
8
Meshes
10
-1.176089
20
0.610371
30
0.552008
70
192
0
VERTEX
8
Meshes
10
-1.176089
20
-0.610371
30
0.552008
70
192
0
VERTEX
8
Meshes
10
-0.721516
20
-0.443295
30
0.290783
70
192
0
VERTEX
8
Meshes
10
-0.721515
20
0.443296
30
0.290783
70
192
0
VERTEX
8
Meshes
10
-0.278010
20
0.000026
30
0.744189
70
192
0
VERTEX
8
Meshes
10
-0.499763
20
-0.221634
30
0.517486
70
192
0
VERTEX
8
Meshes
10
-0.499763
20
0.221661
30
0.517486
70
192
0
VERTEX
8
Meshes
10
-0.388886
20
-0.224064
30
0.630838
70
192
0
VERTEX
8
Meshes
10
-0.388886
20
0.224103
30
0.630838
70
192
0
VERTEX
8
Meshes
10
0.189962
20
0.000020
30
0.995323
70
192
0
VERTEX
8
Meshes
10
0.919986
20
-0.336138
30
0.248294
70
192
0
VERTEX
8
Meshes
10
0.919986
20
0.336138
30
0.248294
70
192
0
VERTEX
8
Meshes
10
1.230164
20
0.336138
30
0.181393
70
192
0
VERTEX
8
Meshes
10
1.230164
20
-0.336138
30
0.181393
70
192
0
VERTEX
8
Meshes
10
1.492634
20
-1.000000
30
0.000000
70
192
0
VERTEX
8
Meshes
10
1.492634
20
1.000000
30
0.000000
70
192
0
VERTEX
8
Meshes
10
-1.000000
20
-1.000000
30
0.000000
70
192
0
VERTEX
8
Meshes
10
-0.499763
20
0.500030
30
0.511404
70
192
0
VERTEX
8
Meshes
10
-0.499763
20
-0.499970
30
0.511404
70
192
0
VERTEX
8
Meshes
10
-1.000000
20
1.000000
30
0.000000
70
192
0
VERTEX
8
Meshes
10
1.000000
20
-1.000000
30
0.000000
70
192
0
VERTEX
8
Meshes
10
1.000000
20
1.000000
30
0.000000
70
192
0
VERTEX
8
Meshes
62
254
10
0.0
20
0.0
30
0.0
70
128
71
1
72
4
73
3
74
2
0
VERTEX
8
Meshes
62
254
10
0.0
20
0.0
30
0.0
70
128
71
1
72
5
73
9
0
VERTEX
8
Meshes
62
254
10
0.0
20
0.0
30
0.0
70
128
71
2
72
3
73
6
0
VERTEX
8
Meshes
62
254
10
0.0
20
0.0
30
0.0
70
128
71
6
72
8
73
2
0
VERTEX
8
Meshes
62
254
10
0.0
20
0.0
30
0.0
70
128
71
8
72
5
73
2
0
VERTEX
8
Meshes
62
254
10
0.0
20
0.0
30
0.0
70
128
71
7
72
1
73
9
0
VERTEX
8
Meshes
62
254
10
0.0
20
0.0
30
0.0
70
128
71
7
72
9
73
10
74
12
0
VERTEX
8
Meshes
62
254
10
0.0
20
0.0
30
0.0
70
128
71
5
72
8
73
11
74
14
0
VERTEX
8
Meshes
62
254
10
0.0
20
0.0
30
0.0
70
128
71
4
72
7
73
12
74
15
0
VERTEX
8
Meshes
62
254
10
0.0
20
0.0
30
0.0
70
128
71
8
72
6
73
13
74
11
0
VERTEX
8
Meshes
62
254
10
0.0
20
0.0
30
0.0
70
128
71
6
72
3
73
16
74
13
0
VERTEX
8
Meshes
62
254
10
0.0
20
0.0
30
0.0
70
128
71
9
72
5
73
14
74
10
0
VERTEX
8
Meshes
62
254
10
0.0
20
0.0
30
0.0
70
128
71
3
72
4
73
15
74
16
0
VERTEX
8
Meshes
62
254
10
0.0
20
0.0
30
0.0
70
128
71
16
72
15
73
18
74
17
0
VERTEX
8
Meshes
62
254
10
0.0
20
0.0
30
0.0
70
128
71
10
72
14
73
19
74
23
0
VERTEX
8
Meshes
62
254
10
0.0
20
0.0
30
0.0
70
128
71
13
72
16
73
17
74
20
0
VERTEX
8
Meshes
62
254
10
0.0
20
0.0
30
0.0
70
128
71
11
72
13
73
20
74
22
0
VERTEX
8
Meshes
62
254
10
0.0
20
0.0
30
0.0
70
128
71
15
72
12
73
21
74
18
0
VERTEX
8
Meshes
62
254
10
0.0
20
0.0
30
0.0
70
128
71
14
72
11
73
22
74
19
0
VERTEX
8
Meshes
62
254
10
0.0
20
0.0
30
0.0
70
128
71
12
72
10
73
23
74
21
0
VERTEX
8
Meshes
62
254
10
0.0
20
0.0
30
0.0
70
128
71
21
72
23
73
24
74
26
0
VERTEX
8
Meshes
62
254
10
0.0
20
0.0
30
0.0
70
128
71
19
72
22
73
25
74
28
0
VERTEX
8
Meshes
62
254
10
0.0
20
0.0
30
0.0
70
128
71
18
72
21
73
26
74
29
0
VERTEX
8
Meshes
62
254
10
0.0
20
0.0
30
0.0
70
128
71
22
72
20
73
27
74
25
0
VERTEX
8
Meshes
62
254
10
0.0
20
0.0
30
0.0
70
128
71
20
72
17
73
30
74
27
0
VERTEX
8
Meshes
62
254
10
0.0
20
0.0
30
0.0
70
128
71
23
72
19
73
28
74
24
0
VERTEX
8
Meshes
62
254
10
0.0
20
0.0
30
0.0
70
128
71
17
72
18
73
29
74
30
0
VERTEX
8
Meshes
62
254
10
0.0
20
0.0
30
0.0
70
128
71
30
72
29
73
32
74
31
0
VERTEX
8
Meshes
62
254
10
0.0
20
0.0
30
0.0
70
128
71
24
72
28
73
33
74
37
0
VERTEX
8
Meshes
62
254
10
0.0
20
0.0
30
0.0
70
128
71
27
72
30
73
31
74
34
0
VERTEX
8
Meshes
62
254
10
0.0
20
0.0
30
0.0
70
128
71
25
72
27
73
34
74
36
0
VERTEX
8
Meshes
62
254
10
0.0
20
0.0
30
0.0
70
128
71
29
72
26
73
35
74
32
0
VERTEX
8
Meshes
62
254
10
0.0
20
0.0
30
0.0
70
128
71
28
72
25
73
36
74
33
0
VERTEX
8
Meshes
62
254
10
0.0
20
0.0
30
0.0
70
128
71
26
72
24
73
37
74
35
0
VERTEX
8
Meshes
62
254
10
0.0
20
0.0
30
0.0
70
128
71
34
72
31
73
32
0
VERTEX
8
Meshes
62
254
10
0.0
20
0.0
30
0.0
70
128
71
33
72
36
73
37
0
VERTEX
8
Meshes
62
254
10
0.0
20
0.0
30
0.0
70
128
71
34
72
35
73
37
74
36
0
VERTEX
8
Meshes
62
254
10
0.0
20
0.0
30
0.0
70
128
71
32
72
35
73
34
0
VERTEX
8
Meshes
62
254
10
0.0
20
0.0
30
0.0
70
128
71
2
72
5
73
38
74
39
0
VERTEX
8
Meshes
62
254
10
0.0
20
0.0
30
0.0
70
128
71
5
72
1
73
40
74
38
0
VERTEX
8
Meshes
62
254
10
0.0
20
0.0
30
0.0
70
128
71
40
72
39
73
38
0
VERTEX
8
Meshes
62
254
10
0.0
20
0.0
30
0.0
70
128
71
39
72
40
73
41
74
42
0
VERTEX
8
Meshes
62
254
10
0.0
20
0.0
30
0.0
70
128
71
40
72
1
73
44
74
41
0
VERTEX
8
Meshes
62
254
10
0.0
20
0.0
30
0.0
70
128
71
2
72
39
73
42
74
43
0
VERTEX
8
Meshes
62
254
10
0.0
20
0.0
30
0.0
70
128
71
1
72
2
73
43
74
44
0
VERTEX
8
Meshes
62
254
10
0.0
20
0.0
30
0.0
70
128
71
44
72
43
73
42
74
41
0
VERTEX
8
Meshes
62
254
10
0.0
20
0.0
30
0.0
70
128
71
7
72
4
73
48
74
46
0
VERTEX
8
Meshes
62
254
10
0.0
20
0.0
30
0.0
70
128
71
1
72
7
73
46
74
50
0
VERTEX
8
Meshes
62
254
10
0.0
20
0.0
30
0.0
70
128
71
2
72
6
73
47
74
49
0
VERTEX
8
Meshes
62
254
10
0.0
20
0.0
30
0.0
70
128
71
1
72
2
73
49
74
50
0
VERTEX
8
Meshes
62
254
10
0.0
20
0.0
30
0.0
70
128
71
4
72
1
73
50
74
48
0
VERTEX
8
Meshes
62
254
10
0.0
20
0.0
30
0.0
70
128
71
7
72
15
73
50
0
SEQEND
0
ENDBLK
0
BLOCK
2
Plane_001
8
Meshes
70
64
10
0.0
20
0.0
30
0.0
3
Plane_001
0
POLYLINE
66
1
8
Meshes
62
254
70
64
71
38
72
35
0
VERTEX
8
Meshes
10
-0.708183
20
0.108805
30
0.952032
70
192
0
VERTEX
8
Meshes
10
-0.781332
20
0.151655
30
0.878883
70
192
0
VERTEX
8
Meshes
10
-0.854481
20
0.108805
30
0.805735
70
192
0
VERTEX
8
Meshes
10
-0.884780
20
0.005357
30
0.775436
70
192
0
VERTEX
8
Meshes
10
-0.854481
20
-0.098091
30
0.805735
70
192
0
VERTEX
8
Meshes
10
-0.781332
20
-0.140940
30
0.878883
70
192
0
VERTEX
8
Meshes
10
-0.708183
20
-0.098091
30
0.952032
70
192
0
VERTEX
8
Meshes
10
-0.677884
20
0.005357
30
0.982331
70
192
0
VERTEX
8
Meshes
10
-0.561886
20
0.108805
30
0.805735
70
192
0
VERTEX
8
Meshes
10
-0.635035
20
0.151655
30
0.732586
70
192
0
VERTEX
8
Meshes
10
-0.708184
20
0.108805
30
0.659437
70
192
0
VERTEX
8
Meshes
10
-0.738483
20
0.005357
30
0.629138
70
192
0
VERTEX
8
Meshes
10
-0.708184
20
-0.098091
30
0.659437
70
192
0
VERTEX
8
Meshes
10
-0.635035
20
-0.140940
30
0.732586
70
192
0
VERTEX
8
Meshes
10
-0.561886
20
-0.098090
30
0.805735
70
192
0
VERTEX
8
Meshes
10
-0.531587
20
0.005358
30
0.836034
70
192
0
VERTEX
8
Meshes
10
-0.635035
20
0.005357
30
0.732586
70
192
0
VERTEX
8
Meshes
10
-0.805104
20
0.005357
30
1.118637
70
192
0
VERTEX
8
Meshes
10
-0.835403
20
-0.098091
30
1.088338
70
192
0
VERTEX
8
Meshes
10
-0.908551
20
-0.140940
30
1.015190
70
192
0
VERTEX
8
Meshes
10
-0.981700
20
-0.098091
30
0.942041
70
192
0
VERTEX
8
Meshes
10
-1.011999
20
0.005357
30
0.911742
70
192
0
VERTEX
8
Meshes
10
-0.981700
20
0.108805
30
0.942041
70
192
0
VERTEX
8
Meshes
10
-0.908552
20
0.151654
30
1.015190
70
192
0
VERTEX
8
Meshes
10
-0.835403
20
0.108805
30
1.088338
70
192
0
VERTEX
8
Meshes
10
-0.944102
20
0.057890
30
1.125033
70
192
0
VERTEX
8
Meshes
10
-0.981248
20
0.079650
30
1.087886
70
192
0
VERTEX
8
Meshes
10
-1.018395
20
0.057890
30
1.050740
70
192
0
VERTEX
8
Meshes
10
-1.033781
20
0.005357
30
1.035354
70
192
0
VERTEX
8
Meshes
10
-1.018394
20
-0.047176
30
1.050740
70
192
0
VERTEX
8
Meshes
10
-0.981248
20
-0.068935
30
1.087886
70
192
0
VERTEX
8
Meshes
10
-0.944102
20
-0.047176
30
1.125033
70
192
0
VERTEX
8
Meshes
10
-0.928715
20
0.005357
30
1.140419
70
192
0
VERTEX
8
Meshes
10
-0.981248
20
0.005357
30
1.087886
70
192
0
VERTEX
8
Meshes
10
-0.944102
20
-0.047176
30
1.125033
70
192
0
VERTEX
8
Meshes
10
-0.981248
20
0.079650
30
1.087886
70
192
0
VERTEX
8
Meshes
10
-0.908551
20
-0.140940
30
1.015190
70
192
0
VERTEX
8
Meshes
10
-0.835403
20
-0.098091
30
1.088338
70
192
0
VERTEX
8
Meshes
62
254
10
0.0
20
0.0
30
0.0
70
128
71
1
72
9
73
10
74
2
0
VERTEX
8
Meshes
62
254
10
0.0
20
0.0
30
0.0
70
128
71
2
72
10
73
11
74
3
0
VERTEX
8
Meshes
62
254
10
0.0
20
0.0
30
0.0
70
128
71
3
72
11
73
12
74
4
0
VERTEX
8
Meshes
62
254
10
0.0
20
0.0
30
0.0
70
128
71
4
72
12
73
13
74
5
0
VERTEX
8
Meshes
62
254
10
0.0
20
0.0
30
0.0
70
128
71
5
72
13
73
14
74
6
0
VERTEX
8
Meshes
62
254
10
0.0
20
0.0
30
0.0
70
128
71
6
72
14
73
15
74
7
0
VERTEX
8
Meshes
62
254
10
0.0
20
0.0
30
0.0
70
128
71
7
72
15
73
16
74
8
0
VERTEX
8
Meshes
62
254
10
0.0
20
0.0
30
0.0
70
128
71
9
72
1
73
8
74
16
0
VERTEX
8
Meshes
62
254
10
0.0
20
0.0
30
0.0
70
128
71
9
72
17
73
11
74
10
0
VERTEX
8
Meshes
62
254
10
0.0
20
0.0
30
0.0
70
128
71
11
72
17
73
13
74
12
0
VERTEX
8
Meshes
62
254
10
0.0
20
0.0
30
0.0
70
128
71
13
72
17
73
15
74
14
0
VERTEX
8
Meshes
62
254
10
0.0
20
0.0
30
0.0
70
128
71
15
72
17
73
9
74
16
0
VERTEX
8
Meshes
62
254
10
0.0
20
0.0
30
0.0
70
128
71
8
72
1
73
25
74
18
0
VERTEX
8
Meshes
62
254
10
0.0
20
0.0
30
0.0
70
128
71
7
72
8
73
18
74
19
0
VERTEX
8
Meshes
62
254
10
0.0
20
0.0
30
0.0
70
128
71
6
72
7
73
19
74
20
0
VERTEX
8
Meshes
62
254
10
0.0
20
0.0
30
0.0
70
128
71
5
72
6
73
20
74
21
0
VERTEX
8
Meshes
62
254
10
0.0
20
0.0
30
0.0
70
128
71
4
72
5
73
21
74
22
0
VERTEX
8
Meshes
62
254
10
0.0
20
0.0
30
0.0
70
128
71
3
72
4
73
22
74
23
0
VERTEX
8
Meshes
62
254
10
0.0
20
0.0
30
0.0
70
128
71
2
72
3
73
23
74
24
0
VERTEX
8
Meshes
62
254
10
0.0
20
0.0
30
0.0
70
128
71
1
72
2
73
24
74
25
0
VERTEX
8
Meshes
62
254
10
0.0
20
0.0
30
0.0
70
128
71
25
72
24
73
27
74
26
0
VERTEX
8
Meshes
62
254
10
0.0
20
0.0
30
0.0
70
128
71
24
72
23
73
28
74
27
0
VERTEX
8
Meshes
62
254
10
0.0
20
0.0
30
0.0
70
128
71
23
72
22
73
29
74
28
0
VERTEX
8
Meshes
62
254
10
0.0
20
0.0
30
0.0
70
128
71
22
72
21
73
30
74
29
0
VERTEX
8
Meshes
62
254
10
0.0
20
0.0
30
0.0
70
128
71
21
72
20
73
31
74
30
0
VERTEX
8
Meshes
62
254
10
0.0
20
0.0
30
0.0
70
128
71
20
72
19
73
32
74
31
0
VERTEX
8
Meshes
62
254
10
0.0
20
0.0
30
0.0
70
128
71
19
72
18
73
33
74
32
0
VERTEX
8
Meshes
62
254
10
0.0
20
0.0
30
0.0
70
128
71
18
72
25
73
26
74
33
0
VERTEX
8
Meshes
62
254
10
0.0
20
0.0
30
0.0
70
128
71
33
72
26
73
27
74
34
0
VERTEX
8
Meshes
62
254
10
0.0
20
0.0
30
0.0
70
128
71
27
72
28
73
29
74
34
0
VERTEX
8
Meshes
62
254
10
0.0
20
0.0
30
0.0
70
128
71
29
72
30
73
31
74
34
0
VERTEX
8
Meshes
62
254
10
0.0
20
0.0
30
0.0
70
128
71
31
72
32
73
33
74
34
0
VERTEX
8
Meshes
62
254
10
0.0
20
0.0
30
0.0
70
128
71
32
72
19
73
38
74
35
0
VERTEX
8
Meshes
62
254
10
0.0
20
0.0
30
0.0
70
128
71
20
72
19
73
38
74
37
0
SEQEND
0
ENDBLK
0
ENDSEC
0
SECTION
2
ENTITIES
0
INSERT
8
1
2
Plane_001
10
0.000000
20
0.000000
30
0.000000
41
1.000000
42
1.000000
43
1.000000
50
0.000000
0
INSERT
8
1
2
Plane
10
0.000000
20
0.000000
30
0.000000
41
1.000000
42
1.000000
43
1.000000
50
0.000000
0
ENDSEC
0
EOF
