<?xml version="1.0" encoding="UTF-8" standalone="no"?>
<!-- Created with Inkscape (http://www.inkscape.org/) -->
<svg
   xmlns:dc="http://purl.org/dc/elements/1.1/"
   xmlns:cc="http://creativecommons.org/ns#"
   xmlns:rdf="http://www.w3.org/1999/02/22-rdf-syntax-ns#"
   xmlns:svg="http://www.w3.org/2000/svg"
   xmlns="http://www.w3.org/2000/svg"
   xmlns:sodipodi="http://sodipodi.sourceforge.net/DTD/sodipodi-0.dtd"
   xmlns:inkscape="http://www.inkscape.org/namespaces/inkscape"
   width="242.35608"
   height="151.01579"
   id="svg2"
   sodipodi:version="0.32"
   inkscape:version="0.46"
   sodipodi:docname="playstation.svg"
   inkscape:output_extension="org.inkscape.output.svg.inkscape"
   version="1.0">
  <defs
     id="defs4">
    <inkscape:perspective
       sodipodi:type="inkscape:persp3d"
       inkscape:vp_x="0 : 526.18109 : 1"
       inkscape:vp_y="0 : 1000 : 0"
       inkscape:vp_z="744.09448 : 526.18109 : 1"
       inkscape:persp3d-origin="372.04724 : 350.78739 : 1"
       id="perspective10" />
    <inkscape:perspective
       id="perspective2390"
       inkscape:persp3d-origin="372.04724 : 350.78739 : 1"
       inkscape:vp_z="744.09448 : 526.18109 : 1"
       inkscape:vp_y="0 : 1000 : 0"
       inkscape:vp_x="0 : 526.18109 : 1"
       sodipodi:type="inkscape:persp3d" />
    <inkscape:perspective
       id="perspective12"
       inkscape:persp3d-origin="886.50018 : 100 : 1"
       inkscape:vp_z="1773.0004 : 150 : 1"
       inkscape:vp_y="0 : 1000 : 0"
       inkscape:vp_x="0 : 150 : 1"
       sodipodi:type="inkscape:persp3d" />
    <inkscape:perspective
       id="perspective3355"
       inkscape:persp3d-origin="67.123741 : 33.999209 : 1"
       inkscape:vp_z="134.24748 : 50.998814 : 1"
       inkscape:vp_y="0 : 1000 : 0"
       inkscape:vp_x="0 : 50.998814 : 1"
       sodipodi:type="inkscape:persp3d" />
    <inkscape:perspective
       id="perspective3443"
       inkscape:persp3d-origin="177.16534 : 118.11023 : 1"
       inkscape:vp_z="354.33069 : 177.16534 : 1"
       inkscape:vp_y="0 : 1000 : 0"
       inkscape:vp_x="0 : 177.16534 : 1"
       sodipodi:type="inkscape:persp3d" />
  </defs>
  <sodipodi:namedview
     id="base"
     pagecolor="#ffffff"
     bordercolor="#666666"
     borderopacity="1.0"
     gridtolerance="10000"
     guidetolerance="10"
     objecttolerance="10"
     inkscape:pageopacity="0.0"
     inkscape:pageshadow="2"
     inkscape:zoom="5.0789737"
     inkscape:cx="121.17804"
     inkscape:cy="75.310493"
     inkscape:document-units="px"
     inkscape:current-layer="layer1"
     showgrid="false"
     inkscape:window-width="1678"
     inkscape:window-height="980"
     inkscape:window-x="0"
     inkscape:window-y="25"
     showguides="true"
     inkscape:guide-bbox="true" />
  <metadata
     id="metadata7">
    <rdf:RDF>
      <cc:Work
         rdf:about="">
        <dc:format>image/svg+xml</dc:format>
        <dc:type
           rdf:resource="http://purl.org/dc/dcmitype/StillImage" />
      </cc:Work>
    </rdf:RDF>
  </metadata>
  <g
     inkscape:label="Layer 1"
     inkscape:groupmode="layer"
     id="layer1"
     transform="translate(-260.34243,-473.69226)">
    <path
       style="opacity:1;fill:#3f3f3f;fill-opacity:1;fill-rule:evenodd;stroke:#000000;stroke-width:1;stroke-linecap:round;stroke-linejoin:round;stroke-miterlimit:4;stroke-dasharray:none;stroke-opacity:1"
       d="M 60.28125,24.15625 C 58.745414,24.15625 57.53125,25.401664 57.53125,26.9375 L 57.53125,100.09375 C 57.53125,101.62959 58.745415,102.84375 60.28125,102.84375 L 182.0625,102.84375 C 183.59834,102.84375 184.84375,101.62958 184.84375,100.09375 L 184.84375,26.9375 C 184.84375,25.401664 183.59833,24.156251 182.0625,24.15625 L 129.25411,24.15625 C 128.98181,24.605319 128.47602,24.90625 127.91036,24.90625 L 113.59806,24.90625 C 113.03391,24.90625 112.55831,24.603315 112.28556,24.15625 L 60.28125,24.15625 z"
       transform="translate(260.34243,473.69226)"
       id="rect3225"
       sodipodi:nodetypes="ccccccccccccc" />
    <rect
       ry="2.6797087"
       rx="2.7722669"
       y="504.13943"
       x="324.1748"
       height="68.484192"
       width="114.69135"
       id="rect3318"
       style="opacity:1;fill:#262626;fill-opacity:1;fill-rule:evenodd;stroke:none;stroke-width:1;stroke-linecap:round;stroke-linejoin:round;stroke-miterlimit:4;stroke-dasharray:none;stroke-opacity:1" />
    <path
       style="fill:#262626;fill-opacity:1;fill-rule:evenodd;stroke:#000000;stroke-width:1;stroke-linecap:butt;stroke-linejoin:miter;stroke-miterlimit:4;stroke-dasharray:none;stroke-opacity:1"
       d="M 272.94118,520.33604 C 267.45098,550.4014 263.87026,582.56236 261.17647,596.67591 C 256.95116,618.81355 293.94694,637.42281 307.97386,611.83931 C 318.62262,592.41719 330.71895,567.6563 330.71895,567.6563 L 272.94118,520.33604 z"
       id="path3206"
       sodipodi:nodetypes="csscc" />
    <path
       id="path3258"
       style="fill:#7a7a7a;fill-opacity:1;fill-rule:evenodd;stroke:#000000;stroke-width:1;stroke-linecap:butt;stroke-linejoin:miter;stroke-miterlimit:4;stroke-dasharray:none;stroke-opacity:1"
       d="M 435.51649,483.7374 L 468.66652,483.7374 L 466.06856,479.46596 C 464.36524,476.66544 459.93736,474.58707 452.09151,474.58707 C 444.24565,474.58707 439.81777,476.66544 438.11445,479.46596 L 435.51649,483.7374 z"
       sodipodi:nodetypes="ccscsc" />
    <path
       sodipodi:nodetypes="ccscsc"
       d="M 293.16355,483.7374 L 326.31358,483.7374 L 323.71562,479.46596 C 322.0123,476.66544 317.58442,474.58707 309.73857,474.58707 C 301.89271,474.58707 297.46483,476.66544 295.76151,479.46596 L 293.16355,483.7374 z"
       style="fill:#7a7a7a;fill-opacity:1;fill-rule:evenodd;stroke:#000000;stroke-width:1;stroke-linecap:butt;stroke-linejoin:miter;stroke-miterlimit:4;stroke-dasharray:none;stroke-opacity:1"
       id="path3234" />
    <path
       id="path3229"
       style="fill:#262626;fill-opacity:1;fill-rule:evenodd;stroke:#000000;stroke-width:1;stroke-linecap:butt;stroke-linejoin:miter;stroke-miterlimit:4;stroke-dasharray:none;stroke-opacity:1"
       d="M 330.58823,503.60667 C 328.88888,492.62627 328.10457,487.13608 327.32026,483.08379 C 326.53594,479.0315 319.60784,476.94 309.73856,476.94 C 299.86928,476.94 292.94118,479.0315 292.15686,483.08379 C 291.37255,487.13608 290.58824,492.62627 288.88889,503.60667"
       sodipodi:nodetypes="cscsc" />
    <path
       sodipodi:type="arc"
       style="opacity:1;fill:#333333;fill-opacity:1;fill-rule:evenodd;stroke:#000000;stroke-width:0.99310337999999998;stroke-linecap:round;stroke-linejoin:round;stroke-miterlimit:4;stroke-dasharray:none;stroke-opacity:1"
       id="path2416"
       sodipodi:cx="303.79086"
       sodipodi:cy="528.9635"
       sodipodi:rx="37.64706"
       sodipodi:ry="37.64706"
       d="M 341.43792,528.9635 A 37.64706,37.64706 0 1 1 266.1438,528.9635 A 37.64706,37.64706 0 1 1 341.43792,528.9635 z"
       transform="matrix(1.0069445,0,0,1.0069445,3.9034135,-2.8890439)" />
    <path
       sodipodi:nodetypes="cscsc"
       d="M 472.94117,503.60667 C 471.24182,492.62627 470.45751,487.13608 469.6732,483.08379 C 468.88888,479.0315 461.96078,476.94 452.0915,476.94 C 442.22222,476.94 435.29412,479.0315 434.5098,483.08379 C 433.72549,487.13608 432.94118,492.62627 431.24183,503.60667"
       style="fill:#262626;fill-opacity:1;fill-rule:evenodd;stroke:#000000;stroke-width:1;stroke-linecap:butt;stroke-linejoin:miter;stroke-miterlimit:4;stroke-dasharray:none;stroke-opacity:1"
       id="path3260" />
    <path
       transform="matrix(0.638889,0,0,0.638889,152.05519,228.66165)"
       d="M 341.43792,528.9635 A 37.64706,37.64706 0 1 1 266.1438,528.9635 A 37.64706,37.64706 0 1 1 341.43792,528.9635 z"
       sodipodi:ry="37.64706"
       sodipodi:rx="37.64706"
       sodipodi:cy="528.9635"
       sodipodi:cx="303.79086"
       id="path3208"
       style="opacity:1;fill:#333333;fill-opacity:1;fill-rule:evenodd;stroke:#000000;stroke-width:1.56521726000000005;stroke-linecap:round;stroke-linejoin:round;stroke-miterlimit:4;stroke-dasharray:none;stroke-opacity:1"
       sodipodi:type="arc" />
    <path
       transform="matrix(0.4930557,0,0,0.4930557,196.35802,305.80215)"
       d="M 341.43792,528.9635 A 37.64706,37.64706 0 1 1 266.1438,528.9635 A 37.64706,37.64706 0 1 1 341.43792,528.9635 z"
       sodipodi:ry="37.64706"
       sodipodi:rx="37.64706"
       sodipodi:cy="528.9635"
       sodipodi:cx="303.79086"
       id="path3212"
       style="opacity:1;fill:#000000;fill-opacity:0.51851849;fill-rule:evenodd;stroke:#000000;stroke-width:2.02816868;stroke-linecap:round;stroke-linejoin:round;stroke-miterlimit:4;stroke-dasharray:none;stroke-opacity:1"
       sodipodi:type="arc" />
    <path
       sodipodi:type="arc"
       style="opacity:1;fill:#4d4d4d;fill-opacity:0.51851849;fill-rule:evenodd;stroke:#000000;stroke-width:2.3225801;stroke-linecap:round;stroke-linejoin:round;stroke-miterlimit:4;stroke-dasharray:none;stroke-opacity:1"
       id="path3210"
       sodipodi:cx="303.79086"
       sodipodi:cy="528.9635"
       sodipodi:rx="37.64706"
       sodipodi:ry="37.64706"
       d="M 341.43792,528.9635 A 37.64706,37.64706 0 1 1 266.1438,528.9635 A 37.64706,37.64706 0 1 1 341.43792,528.9635 z"
       transform="matrix(0.4305557,0,0,0.4305557,215.34495,338.86237)" />
    <path
       sodipodi:nodetypes="csscc"
       id="path3223"
       d="M 490.07696,520.33604 C 495.56716,550.4014 499.14788,583.08523 501.84167,596.67591 C 506.2235,618.78311 469.0712,637.42281 455.04428,611.83931 C 444.39552,592.41719 432.29919,567.6563 432.29919,567.6563 L 490.07696,520.33604 z"
       style="fill:#262626;fill-opacity:1;fill-rule:evenodd;stroke:#000000;stroke-width:1;stroke-linecap:butt;stroke-linejoin:miter;stroke-miterlimit:4;stroke-dasharray:none;stroke-opacity:1" />
    <path
       transform="matrix(-1.0069445,0,0,1.0069445,759.11473,-2.8890439)"
       d="M 341.43792,528.9635 A 37.64706,37.64706 0 1 1 266.1438,528.9635 A 37.64706,37.64706 0 1 1 341.43792,528.9635 z"
       sodipodi:ry="37.64706"
       sodipodi:rx="37.64706"
       sodipodi:cy="528.9635"
       sodipodi:cx="303.79086"
       id="path3221"
       style="opacity:1;fill:#333333;fill-opacity:1;fill-rule:evenodd;stroke:#000000;stroke-width:0.99310337999999998;stroke-linecap:round;stroke-linejoin:round;stroke-miterlimit:4;stroke-dasharray:none;stroke-opacity:1"
       sodipodi:type="arc" />
    <path
       id="path3219"
       d="M 445.43294,501.73222 C 443.8971,501.73222 442.65169,502.97762 442.65169,504.51347 L 442.65169,519.16972 L 427.96419,519.16972 C 426.42835,519.16972 425.21418,520.41512 425.21419,521.95097 L 425.21419,537.54472 C 425.21419,539.08056 426.42837,540.32596 427.96419,540.32597 L 442.65169,540.32597 L 442.65169,554.98222 C 442.65169,556.51806 443.89709,557.76345 445.43294,557.76347 L 461.02669,557.76347 C 462.56253,557.76347 463.77668,556.51804 463.77669,554.98222 L 463.77669,540.32597 L 478.46419,540.32597 C 480.00003,540.32597 481.21419,539.08055 481.21419,537.54472 L 481.21419,521.95097 C 481.21419,520.41513 480.00004,519.16972 478.46419,519.16972 L 463.77669,519.16972 L 463.77669,504.51347 C 463.77669,502.97763 462.56252,501.73222 461.02669,501.73222 L 445.43294,501.73222 z"
       style="opacity:1;fill:#262626;fill-opacity:1;fill-rule:evenodd;stroke:none;stroke-width:1;stroke-linecap:round;stroke-linejoin:round;stroke-miterlimit:4;stroke-dasharray:none;stroke-opacity:1" />
    <rect
       style="opacity:1;fill:#595959;fill-opacity:1;fill-rule:evenodd;stroke:#000000;stroke-width:1;stroke-linecap:round;stroke-linejoin:round;stroke-miterlimit:4;stroke-dasharray:none;stroke-opacity:1"
       id="rect3236"
       width="11.633987"
       height="6.666667"
       x="353.46405"
       y="530.27539"
       rx="1.5686275"
       ry="1.5686275" />
    <path
       style="fill:#595959;fill-opacity:1;fill-rule:evenodd;stroke:#000000;stroke-width:1;stroke-linecap:round;stroke-linejoin:round;stroke-miterlimit:4;stroke-opacity:1"
       d="M 407.18954,533.60873 L 398.6928,536.94206 C 397.88381,537.25943 397.12418,536.24245 397.12418,535.37343 L 397.12418,531.84402 C 397.12418,530.975 397.88381,529.95802 398.6928,530.27539 L 407.18954,533.60873 z"
       id="rect3238"
       sodipodi:nodetypes="csccsc" />
    <path
       sodipodi:type="arc"
       style="opacity:1;fill:#595959;fill-opacity:1;fill-rule:evenodd;stroke:#000000;stroke-width:1;stroke-linecap:round;stroke-linejoin:round;stroke-miterlimit:4;stroke-dasharray:none;stroke-opacity:1"
       id="path3242"
       sodipodi:cx="374.24835"
       sodipodi:cy="545.82623"
       sodipodi:rx="5.7516341"
       sodipodi:ry="5.7516341"
       d="M 379.99999,545.82623 A 5.7516341,5.7516341 0 1 1 368.49672,545.82623 A 5.7516341,5.7516341 0 1 1 379.99999,545.82623 z"
       transform="matrix(1.3795502,0,0,1.3795502,-133.81076,-201.67829)" />
    <path
       sodipodi:type="arc"
       style="opacity:1;fill:#5a5a5a;fill-opacity:1;fill-rule:evenodd;stroke:#454545;stroke-width:1;stroke-linecap:round;stroke-linejoin:round;stroke-miterlimit:4;stroke-dasharray:none;stroke-opacity:1"
       id="path3244"
       sodipodi:cx="453.33334"
       sodipodi:cy="510.66284"
       sodipodi:rx="8.2352943"
       sodipodi:ry="8.2352943"
       d="M 461.56864,510.66284 A 8.2352943,8.2352943 0 1 1 445.09805,510.66284 A 8.2352943,8.2352943 0 1 1 461.56864,510.66284 z"
       transform="translate(-0.1191535,1.4379085)" />
    <path
       transform="translate(-0.1191535,36.862745)"
       d="M 461.56864,510.66284 A 8.2352943,8.2352943 0 1 1 445.09805,510.66284 A 8.2352943,8.2352943 0 1 1 461.56864,510.66284 z"
       sodipodi:ry="8.2352943"
       sodipodi:rx="8.2352943"
       sodipodi:cy="510.66284"
       sodipodi:cx="453.33334"
       id="path3246"
       style="opacity:1;fill:#5a5a5a;fill-opacity:1;fill-rule:evenodd;stroke:#454545;stroke-width:1;stroke-linecap:round;stroke-linejoin:round;stroke-miterlimit:4;stroke-dasharray:none;stroke-opacity:1"
       sodipodi:type="arc" />
    <path
       transform="matrix(-1,0,0,-1,924.25995,1040.476)"
       d="M 461.56864,510.66284 A 8.2352943,8.2352943 0 1 1 445.09805,510.66284 A 8.2352943,8.2352943 0 1 1 461.56864,510.66284 z"
       sodipodi:ry="8.2352943"
       sodipodi:rx="8.2352943"
       sodipodi:cy="510.66284"
       sodipodi:cx="453.33334"
       id="path3248"
       style="fill:#5a5a5a;fill-opacity:1;fill-rule:evenodd;stroke:#454545;stroke-width:1;stroke-linecap:round;stroke-linejoin:round;stroke-miterlimit:4;stroke-dasharray:none;stroke-opacity:1"
       sodipodi:type="arc" />
    <path
       sodipodi:type="arc"
       style="fill:#5a5a5a;fill-opacity:1;fill-rule:evenodd;stroke:#454545;stroke-width:1;stroke-linecap:round;stroke-linejoin:round;stroke-miterlimit:4;stroke-dasharray:none;stroke-opacity:1"
       id="path3250"
       sodipodi:cx="453.33334"
       sodipodi:cy="510.66284"
       sodipodi:rx="8.2352943"
       sodipodi:ry="8.2352943"
       d="M 461.56864,510.66284 A 8.2352943,8.2352943 0 1 1 445.09805,510.66284 A 8.2352943,8.2352943 0 1 1 461.56864,510.66284 z"
       transform="matrix(-1,0,0,-1,888.83512,1040.476)" />
    <path
       style="opacity:1;fill:#262626;fill-opacity:1;fill-rule:evenodd;stroke:none;stroke-width:1;stroke-linecap:round;stroke-linejoin:round;stroke-miterlimit:4;stroke-dasharray:none;stroke-opacity:1"
       d="M 301.84375,501.25 C 300.30791,501.25 299.0625,502.4954 299.0625,504.03125 L 299.0625,518.6875 L 284.375,518.6875 C 282.83916,518.6875 281.62499,519.9329 281.625,521.46875 L 281.625,537.0625 C 281.625,538.59834 282.83918,539.84374 284.375,539.84375 L 299.0625,539.84375 L 299.0625,554.5 C 299.0625,556.03584 300.3079,557.28123 301.84375,557.28125 L 317.4375,557.28125 C 318.97334,557.28125 320.18749,556.03582 320.1875,554.5 L 320.1875,539.84375 L 334.875,539.84375 C 336.41084,539.84375 337.625,538.59833 337.625,537.0625 L 337.625,521.46875 C 337.625,519.93291 336.41085,518.6875 334.875,518.6875 L 320.1875,518.6875 L 320.1875,504.03125 C 320.1875,502.49541 318.97333,501.25 317.4375,501.25 L 301.84375,501.25 z"
       id="rect3214" />
    <path
       sodipodi:type="arc"
       style="opacity:1;fill:#333333;fill-opacity:1;fill-rule:evenodd;stroke:#000000;stroke-width:1.56521726000000005;stroke-linecap:round;stroke-linejoin:round;stroke-miterlimit:4;stroke-dasharray:none;stroke-opacity:1"
       id="path3289"
       sodipodi:cx="303.79086"
       sodipodi:cy="528.9635"
       sodipodi:rx="37.64706"
       sodipodi:ry="37.64706"
       d="M 341.43792,528.9635 A 37.64706,37.64706 0 1 1 266.1438,528.9635 A 37.64706,37.64706 0 1 1 341.43792,528.9635 z"
       transform="matrix(0.638889,0,0,0.638889,222.12055,228.66165)" />
    <path
       sodipodi:type="arc"
       style="opacity:1;fill:#000000;fill-opacity:0.51851849;fill-rule:evenodd;stroke:#000000;stroke-width:2.02816868;stroke-linecap:round;stroke-linejoin:round;stroke-miterlimit:4;stroke-dasharray:none;stroke-opacity:1"
       id="path3291"
       sodipodi:cx="303.79086"
       sodipodi:cy="528.9635"
       sodipodi:rx="37.64706"
       sodipodi:ry="37.64706"
       d="M 341.43792,528.9635 A 37.64706,37.64706 0 1 1 266.1438,528.9635 A 37.64706,37.64706 0 1 1 341.43792,528.9635 z"
       transform="matrix(0.4930557,0,0,0.4930557,266.42338,305.80215)" />
    <path
       transform="matrix(0.4305557,0,0,0.4305557,285.41031,338.86237)"
       d="M 341.43792,528.9635 A 37.64706,37.64706 0 1 1 266.1438,528.9635 A 37.64706,37.64706 0 1 1 341.43792,528.9635 z"
       sodipodi:ry="37.64706"
       sodipodi:rx="37.64706"
       sodipodi:cy="528.9635"
       sodipodi:cx="303.79086"
       id="path3293"
       style="opacity:1;fill:#4d4d4d;fill-opacity:0.51851849;fill-rule:evenodd;stroke:#000000;stroke-width:2.3225801;stroke-linecap:round;stroke-linejoin:round;stroke-miterlimit:4;stroke-dasharray:none;stroke-opacity:1"
       sodipodi:type="arc" />
    <g
       id="g3289"
       style="fill:#3f3f3f;fill-opacity:1">
      <path
         sodipodi:type="star"
         style="fill:#3f3f3f;fill-opacity:1;fill-rule:evenodd;stroke:none;stroke-width:2.60991526000000018;stroke-linecap:round;stroke-linejoin:round;stroke-miterlimit:4;stroke-dasharray:none;stroke-opacity:1"
         id="path3273"
         sodipodi:sides="3"
         sodipodi:cx="271.52805"
         sodipodi:cy="514.41351"
         sodipodi:r1="8.4435501"
         sodipodi:r2="4.2217751"
         sodipodi:arg1="0"
         sodipodi:arg2="1.0471976"
         inkscape:flatsided="true"
         inkscape:rounded="0"
         inkscape:randomized="0"
         d="M 279.9716,514.41351 L 267.30627,521.72584 L 267.30627,507.10118 L 279.9716,514.41351 z"
         transform="matrix(0,-0.2837353,-0.5174088,0,575.78708,583.63867)" />
      <path
         transform="matrix(0,0.2837353,-0.5174088,0,575.78708,474.89258)"
         d="M 279.9716,514.41351 L 267.30627,521.72584 L 267.30627,507.10118 L 279.9716,514.41351 z"
         inkscape:randomized="0"
         inkscape:rounded="0"
         inkscape:flatsided="true"
         sodipodi:arg2="1.0471976"
         sodipodi:arg1="0"
         sodipodi:r2="4.2217751"
         sodipodi:r1="8.4435501"
         sodipodi:cy="514.41351"
         sodipodi:cx="271.52805"
         sodipodi:sides="3"
         id="path3295"
         style="fill:#3f3f3f;fill-opacity:1;fill-rule:evenodd;stroke:none;stroke-width:2.60991526000000018;stroke-linecap:round;stroke-linejoin:round;stroke-miterlimit:4;stroke-dasharray:none;stroke-opacity:1"
         sodipodi:type="star" />
      <path
         transform="matrix(0.2837353,0,0,-0.5174088,255.25195,795.4277)"
         d="M 279.9716,514.41351 L 267.30627,521.72584 L 267.30627,507.10118 L 279.9716,514.41351 z"
         inkscape:randomized="0"
         inkscape:rounded="0"
         inkscape:flatsided="true"
         sodipodi:arg2="1.0471976"
         sodipodi:arg1="0"
         sodipodi:r2="4.2217751"
         sodipodi:r1="8.4435501"
         sodipodi:cy="514.41351"
         sodipodi:cx="271.52805"
         sodipodi:sides="3"
         id="path3303"
         style="fill:#3f3f3f;fill-opacity:1;fill-rule:evenodd;stroke:none;stroke-width:2.60991526000000018;stroke-linecap:round;stroke-linejoin:round;stroke-miterlimit:4;stroke-dasharray:none;stroke-opacity:1"
         sodipodi:type="star" />
      <path
         sodipodi:type="star"
         style="fill:#3f3f3f;fill-opacity:1;fill-rule:evenodd;stroke:none;stroke-width:2.60991526000000018;stroke-linecap:round;stroke-linejoin:round;stroke-miterlimit:4;stroke-dasharray:none;stroke-opacity:1"
         id="path3305"
         sodipodi:sides="3"
         sodipodi:cx="271.52805"
         sodipodi:cy="514.41351"
         sodipodi:r1="8.4435501"
         sodipodi:r2="4.2217751"
         sodipodi:arg1="0"
         sodipodi:arg2="1.0471976"
         inkscape:flatsided="true"
         inkscape:rounded="0"
         inkscape:randomized="0"
         d="M 279.9716,514.41351 L 267.30627,521.72584 L 267.30627,507.10118 L 279.9716,514.41351 z"
         transform="matrix(-0.2837353,0,0,-0.5174088,363.99805,795.4277)" />
    </g>
    <rect
       style="opacity:1;fill:none;fill-opacity:1;fill-rule:evenodd;stroke:#ff01db;stroke-width:1;stroke-linecap:butt;stroke-linejoin:miter;stroke-miterlimit:4;stroke-dasharray:none;stroke-opacity:1"
       id="rect3307"
       width="9.4280901"
       height="9.4280901"
       x="430.78772"
       y="525.09912"
       rx="0"
       ry="0" />
    <path
       sodipodi:type="star"
       style="opacity:1;fill:none;fill-opacity:1;fill-rule:evenodd;stroke:#00ff83;stroke-width:1.14162278;stroke-linecap:butt;stroke-linejoin:miter;stroke-miterlimit:4;stroke-dasharray:none;stroke-opacity:1"
       id="path3309"
       sodipodi:sides="3"
       sodipodi:cx="449.3132"
       sodipodi:cy="514.68372"
       sodipodi:r1="6.9132905"
       sodipodi:r2="3.4566453"
       sodipodi:arg1="0.52359878"
       sodipodi:arg2="1.5707963"
       inkscape:flatsided="true"
       inkscape:rounded="0"
       inkscape:randomized="0"
       d="M 455.30029,518.14036 L 443.32612,518.14036 L 449.3132,507.77043 L 455.30029,518.14036 z"
       transform="matrix(0.8766816,0,0,0.8752112,59.309557,61.954815)" />
    <path
       sodipodi:type="arc"
       style="fill:none;fill-opacity:1;fill-rule:evenodd;stroke:#ff0000;stroke-width:1.45829916;stroke-linecap:round;stroke-linejoin:round;stroke-miterlimit:4;stroke-dasharray:none;stroke-opacity:1"
       id="path3311"
       sodipodi:cx="453.33334"
       sodipodi:cy="510.66284"
       sodipodi:rx="8.2352943"
       sodipodi:ry="8.2352943"
       d="M 461.56864,510.66284 A 8.2352943,8.2352943 0 1 1 445.09805,510.66284 A 8.2352943,8.2352943 0 1 1 461.56864,510.66284 z"
       transform="matrix(-0.6857303,0,0,-0.6857303,781.79103,879.99016)" />
    <path
       id="path3313"
       style="fill:none;fill-opacity:0.75;fill-rule:evenodd;stroke:#8243fb;stroke-width:1;stroke-linecap:butt;stroke-linejoin:miter;stroke-miterlimit:4;stroke-dasharray:none;stroke-opacity:1"
       d="M 449.03591,543.43016 L 457.53968,551.93393 M 457.53968,543.43016 L 449.03591,551.93393" />
    <g
       id="g5204"
       style="fill:#5a5a5a;fill-opacity:1;stroke:#454545;stroke-opacity:1">
      <path
         transform="translate(0.351025,0.3733521)"
         d="M 318.59375,523.28125 C 318.25849,523.30993 317.95147,523.4805 317.75,523.75 L 314.25,528.1875 C 313.92408,528.61125 313.92408,529.20125 314.25,529.625 L 317.75,534.09375 C 317.97204,534.38796 318.3189,534.5614 318.6875,534.5625 L 326.8125,534.59375 C 327.12814,534.59605 327.43153,534.47168 327.65473,534.24848 C 327.87793,534.02528 328.0023,533.72189 328,533.40625 L 328,524.625 C 328.00481,523.97932 327.48933,523.44991 326.84375,523.4375 L 318.71875,523.28125 C 318.67711,523.27904 318.63539,523.27904 318.59375,523.28125 z"
         id="path3322"
         style="fill:#5a5a5a;fill-opacity:1;fill-rule:evenodd;stroke:#454545;stroke-width:1;stroke-linecap:round;stroke-linejoin:round;stroke-miterlimit:4;stroke-opacity:1"
         inkscape:original="M 318.6875 524.46875 L 315.1875 528.90625 L 318.6875 533.375 L 326.8125 533.40625 L 326.8125 524.625 L 318.6875 524.46875 z "
         inkscape:radius="1.1788157"
         sodipodi:type="inkscape:offset" />
      <path
         transform="matrix(-1,0,0,1,618.89898,0.2844974)"
         sodipodi:type="inkscape:offset"
         inkscape:radius="1.1788157"
         inkscape:original="M 318.6875 524.46875 L 315.1875 528.90625 L 318.6875 533.375 L 326.8125 533.40625 L 326.8125 524.625 L 318.6875 524.46875 z "
         style="fill:#5a5a5a;fill-opacity:1;fill-rule:evenodd;stroke:#454545;stroke-width:1;stroke-linecap:round;stroke-linejoin:round;stroke-miterlimit:4;stroke-opacity:1"
         id="path3324"
         d="M 318.59375,523.28125 C 318.25849,523.30993 317.95147,523.4805 317.75,523.75 L 314.25,528.1875 C 313.92408,528.61125 313.92408,529.20125 314.25,529.625 L 317.75,534.09375 C 317.97204,534.38796 318.3189,534.5614 318.6875,534.5625 L 326.8125,534.59375 C 327.12814,534.59605 327.43153,534.47168 327.65473,534.24848 C 327.87793,534.02528 328.0023,533.72189 328,533.40625 L 328,524.625 C 328.00481,523.97932 327.48933,523.44991 326.84375,523.4375 L 318.71875,523.28125 C 318.67711,523.27904 318.63539,523.27904 318.59375,523.28125 z" />
      <path
         transform="matrix(0,1,-1,0,838.51727,219.99165)"
         sodipodi:type="inkscape:offset"
         inkscape:radius="1.1788157"
         inkscape:original="M 318.6875 524.46875 L 315.1875 528.90625 L 318.6875 533.375 L 326.8125 533.40625 L 326.8125 524.625 L 318.6875 524.46875 z "
         style="fill:#5a5a5a;fill-opacity:1;fill-rule:evenodd;stroke:#454545;stroke-width:1;stroke-linecap:round;stroke-linejoin:round;stroke-miterlimit:4;stroke-opacity:1"
         id="path3332"
         d="M 318.59375,523.28125 C 318.25849,523.30993 317.95147,523.4805 317.75,523.75 L 314.25,528.1875 C 313.92408,528.61125 313.92408,529.20125 314.25,529.625 L 317.75,534.09375 C 317.97204,534.38796 318.3189,534.5614 318.6875,534.5625 L 326.8125,534.59375 C 327.12814,534.59605 327.43153,534.47168 327.65473,534.24848 C 327.87793,534.02528 328.0023,533.72189 328,533.40625 L 328,524.625 C 328.00481,523.97932 327.48933,523.44991 326.84375,523.4375 L 318.71875,523.28125 C 318.67711,523.27904 318.63539,523.27904 318.59375,523.28125 z" />
      <path
         d="M 318.59375,523.28125 C 318.25849,523.30993 317.95147,523.4805 317.75,523.75 L 314.25,528.1875 C 313.92408,528.61125 313.92408,529.20125 314.25,529.625 L 317.75,534.09375 C 317.97204,534.38796 318.3189,534.5614 318.6875,534.5625 L 326.8125,534.59375 C 327.12814,534.59605 327.43153,534.47168 327.65473,534.24848 C 327.87793,534.02528 328.0023,533.72189 328,533.40625 L 328,524.625 C 328.00481,523.97932 327.48933,523.44991 326.84375,523.4375 L 318.71875,523.28125 C 318.67711,523.27904 318.63539,523.27904 318.59375,523.28125 z"
         id="path3334"
         style="fill:#5a5a5a;fill-opacity:1;fill-rule:evenodd;stroke:#454545;stroke-width:1;stroke-linecap:round;stroke-linejoin:round;stroke-miterlimit:4;stroke-opacity:1"
         inkscape:original="M 318.6875 524.46875 L 315.1875 528.90625 L 318.6875 533.375 L 326.8125 533.40625 L 326.8125 524.625 L 318.6875 524.46875 z "
         inkscape:radius="1.1788157"
         sodipodi:type="inkscape:offset"
         transform="matrix(0,-1,-1,0,838.60612,838.5396)" />
    </g>
    <text
       xml:space="preserve"
       style="font-size:10.52404881px;font-style:normal;font-variant:normal;font-weight:normal;font-stretch:normal;text-align:center;line-height:-200%;writing-mode:lr-tb;text-anchor:middle;fill:#000000;fill-opacity:1;stroke:none;stroke-width:3pt;stroke-linecap:butt;stroke-linejoin:miter;stroke-opacity:1;font-family:DejaVu Sans;-inkscape-font-specification:DejaVu Sans"
       x="309.36154"
       y="489.09683"
       id="text3336"
       sodipodi:linespacing="-200%"><tspan
         sodipodi:role="line"
         id="tspan3338"
         x="309.36154"
         y="489.09683">L</tspan></text>
    <text
       sodipodi:linespacing="-200%"
       id="text3340"
       y="489.09683"
       x="453.00854"
       style="font-size:10.52404881px;font-style:normal;font-variant:normal;font-weight:normal;font-stretch:normal;text-align:center;line-height:-200%;writing-mode:lr-tb;text-anchor:middle;fill:#000000;fill-opacity:1;stroke:none;stroke-width:3pt;stroke-linecap:butt;stroke-linejoin:miter;stroke-opacity:1;font-family:DejaVu Sans;-inkscape-font-specification:DejaVu Sans"
       xml:space="preserve"><tspan
         y="489.09683"
         x="453.00854"
         id="tspan3342"
         sodipodi:role="line">R</tspan></text>
    <text
       xml:space="preserve"
       style="font-size:4.56555033px;font-style:normal;font-weight:normal;fill:#e6e6e6;fill-opacity:1;stroke:none;stroke-width:1px;stroke-linecap:butt;stroke-linejoin:miter;stroke-opacity:1;font-family:Bitstream Vera Sans"
       x="351.18387"
       y="527.77789"
       id="text2434"><tspan
         sodipodi:role="line"
         id="tspan2436"
         x="351.18387"
         y="527.77789">SELECT</tspan></text>
    <text
       id="text2438"
       y="527.77789"
       x="394.06564"
       style="font-size:4.56555033px;font-style:normal;font-weight:normal;fill:#e6e6e6;fill-opacity:1;stroke:none;stroke-width:1px;stroke-linecap:butt;stroke-linejoin:miter;stroke-opacity:1;font-family:Bitstream Vera Sans"
       xml:space="preserve"><tspan
         y="527.77789"
         x="394.06564"
         id="tspan2440"
         sodipodi:role="line">START</tspan></text>
    <g
       transform="matrix(2.346448e-2,0,0,2.346448e-2,376.62244,504.99176)"
       id="g2507"
       inkscape:label="Livello 1">
      <g
         id="g2395">
        <g
           id="g2389"
           transform="translate(0,-98.471145)"
           style="fill:#cccccc">
          <path
             id="path2387"
             d="M -366.54898,330.09481 L -332.49443,330.09481 L -332.49443,420.18025 L -366.54898,420.18025 C -383.50689,364.33139 -467.89767,355.97477 -520.80132,355.97477 C -567.08457,355.97477 -601.65498,368.14411 -601.65498,391.64448 C -601.65498,418.80791 -536.54847,419.56799 -483.9064,426.69844 C -416.1409,435.87739 -317.27622,434.30533 -317.27622,522.89158 C -317.27622,592.80277 -410.13057,616.51839 -468.28482,616.64661 C -572.36677,616.87609 -604.68395,586.89179 -628.49769,586.89179 C -635.09615,586.89179 -638.50877,593.27732 -638.5087,606.04833 L -672.55103,606.04833 L -672.55103,504.96655 L -638.5087,504.96655 C -625.72496,565.90022 -532.02635,579.1786 -492.5589,579.1786 C -464.56603,579.1786 -392.57272,573.69069 -392.57272,540.41855 C -392.57272,508.88842 -438.76664,510.53444 -494.91362,502.516 C -556.43136,493.73055 -677.75822,491.80652 -677.75822,409.99245 C -677.75822,346.87021 -607.02606,316.64792 -527.65841,316.64792 C -435.46954,316.64792 -389.89428,346.58535 -376.21791,346.58535 C -369.77864,346.58535 -366.54898,340.66132 -366.54898,330.09481 L -366.54898,330.09481 z"
             style="font-size:400.5378418px;font-style:normal;font-weight:normal;fill:#cccccc;fill-opacity:1;stroke:none;stroke-width:1px;stroke-linecap:butt;stroke-linejoin:miter;stroke-opacity:1;font-family:Bitstream Vera Sans"
             sodipodi:nodetypes="ccccssssssccccsssssscc" />
          <path
             style="font-size:400.5378418px;font-style:normal;font-weight:normal;fill:#cccccc;fill-opacity:1;stroke:none;stroke-width:1px;stroke-linecap:butt;stroke-linejoin:miter;stroke-opacity:1;font-family:Bitstream Vera Sans"
             d="M 578.50818,600.02404 L 523.62498,600.02404 L 304.53193,412.57751 L 304.53193,551.96145 C 304.53181,561.30835 309.20524,565.98178 318.55222,565.98174 L 358.60848,565.98174 L 358.60848,600.02404 L 194.78985,600.02404 L 194.78985,565.98174 L 234.84607,565.98174 C 244.19287,565.98178 248.8663,561.30835 248.86637,551.96145 L 248.86637,381.33439 C 248.8663,371.98775 244.19287,367.31433 234.84607,367.3141 L 194.78985,367.3141 L 194.78985,333.2718 L 332.16914,333.2718 L 522.83048,496.28366 L 522.83048,381.33439 C 522.83008,371.98775 518.15668,367.31433 508.81018,367.3141 L 468.75388,367.3141 L 468.75388,333.2718 L 632.57248,333.2718 L 632.57248,367.3141 L 592.52848,367.3141 C 583.18128,367.31433 578.50778,371.98775 578.50818,381.33439 L 578.50818,600.02404 z"
             id="path2405" />
          <path
             style="font-size:400.5378418px;font-style:normal;font-weight:normal;fill:#cccccc;fill-opacity:1;stroke:none;stroke-width:1px;stroke-linecap:butt;stroke-linejoin:miter;stroke-opacity:1;font-family:Bitstream Vera Sans"
             d="M 934.22268,333.2718 L 1095.2421,333.2718 L 1095.2421,367.3141 L 1063.5956,367.3141 C 1050.2472,367.31433 1039.0343,371.98775 1029.9567,381.33439 L 922.20698,496.28366 L 922.20698,551.96145 C 922.20678,561.30835 926.88018,565.98178 936.22728,565.98174 L 976.28358,565.98174 L 976.28358,600.02404 L 782.01628,600.02404 L 782.01628,565.98174 L 822.07258,565.98174 C 831.41928,565.98178 836.09268,561.30835 836.09288,551.96145 L 836.09288,499.88958 L 725.54398,381.33439 C 716.46598,371.98775 705.25308,367.31433 691.90508,367.3141 L 660.25858,367.3141 L 660.25858,333.2718 L 858.11948,333.2718 L 858.11948,367.3141 L 838.50088,367.3141 C 833.69278,367.31433 830.62068,368.98283 829.28438,372.3196 C 827.94778,375.65682 828.48158,378.66175 830.88568,381.33439 L 896.17108,451.02025 L 961.45648,381.33439 C 963.86008,378.66175 964.39588,375.65682 963.06388,372.3196 C 961.73118,368.98283 958.66108,367.31433 953.85348,367.3141 L 934.22268,367.3141 L 934.22268,333.2718 z"
             id="text2388" />
          <path
             sodipodi:nodetypes="czzzzczzzz"
             style="fill:#cccccc;fill-opacity:1;stroke:none;stroke-width:1.72916806;stroke-linecap:round;stroke-linejoin:round;stroke-miterlimit:4;stroke-opacity:1"
             d="M -47.10521,316.64795 C -171.93933,316.64794 -254.60521,380.90677 -254.60521,466.64795 C -254.60521,552.38913 -171.93933,616.6479 -47.10521,616.6479 C 77.72891,616.6479 160.39479,552.38915 160.39479,466.64795 C 160.39479,380.90675 77.72891,316.64796 -47.10521,316.64795 z M -47.10521,356.64795 C 24.48641,356.64796 71.89479,403.77107 71.89479,466.64795 C 71.89479,529.52482 24.48641,576.64795 -47.10521,576.6479 C -118.69683,576.64785 -166.10521,529.52481 -166.10521,466.64795 C -166.10521,403.77108 -118.69683,356.64794 -47.10521,356.64795 z"
             id="path2401" />
        </g>
      </g>
    </g>
    <g
       transform="matrix(1.6530585e-2,0,0,1.6530585e-2,376.12631,541.48635)"
       id="g3"
       style="fill:#f2f2f2">
	
	<path
   style="fill:#f2f2f2;fill-opacity:1;fill-rule:evenodd"
   id="path7"
   d="M 395.06807,434.21345 L 394.60021,863.39514 L 279.61012,825.99696 L 279.61012,321.53515 L 426.38841,360.34125 C 520.34231,385.59251 577.83949,434.67697 576.90381,520.70189 C 575.96956,620.75529 529.69221,660.95773 439.47538,634.77658 L 439.47538,437.47977 C 439.47538,413.635 395.06807,412.23866 395.06807,434.21345 L 395.06807,434.21345 z"
   clip-rule="evenodd" />

	<path
   style="fill:#f2f2f2;fill-opacity:1;fill-rule:evenodd"
   id="path9"
   d="M 226.78568,742.76757 L 172.56056,761.00535 C 137.49733,773.16387 107.58489,744.64627 139.83807,732.95128 L 166.01346,723.60717 L 67.381005,692.27665 C 36.994899,702.56663 8.4787729,724.53999 10.3531,755.3983 C 12.223081,786.7187 83.74009,794.20296 138.90381,803.08643 C 190.32031,811.49773 237.06553,806.82349 279.60869,791.86223 L 279.60869,759.60031 L 226.78568,742.76757 L 226.78568,742.76757 z M 395.53446,863.39514 L 496.03688,828.32754 L 394.60021,796.07291 L 394.60021,861.05298 L 395.53446,863.39514 L 395.53446,863.39514 z"
   clip-rule="evenodd" />

	<path
   style="fill:#f2f2f2;fill-opacity:1;fill-rule:evenodd"
   id="path11"
   d="M 662.91715,769.42531 L 664.78565,768.95457 C 708.72663,753.53123 727.42501,732.01703 722.75363,711.92089 C 715.27373,678.26121 661.51646,660.02348 578.77524,653.9442 C 519.41092,649.73926 460.98092,662.82627 403.95154,682.46035 L 394.60164,685.73681 L 496.97405,717.52794 L 556.80624,697.42166 C 619.44554,685.73681 644.69244,706.30513 584.38808,725.47573 L 554.46981,735.75553 L 662.91715,769.42531 L 662.91715,769.42531 z M 279.61012,620.75529 L 234.26272,636.17869 L 279.61012,650.2057 L 279.61012,620.75529 L 279.61012,620.75529 z"
   clip-rule="evenodd" />

	<path
   style="fill:#f2f2f2;fill-opacity:1;fill-rule:evenodd"
   id="path13"
   d="M 496.03688,828.32754 L 662.91715,769.42531 L 554.46695,735.75553 L 394.60021,790.45575 L 394.60021,796.07291 L 496.03688,828.32754 L 496.03688,828.32754 z M 279.61012,725.00349 L 226.78712,742.76906 L 279.61012,759.60031 L 279.61012,725.00349 L 279.61012,725.00349 z M 394.60021,752.5955 L 394.60021,685.73681 L 496.97262,717.52794 L 394.60021,752.5955 L 394.60021,752.5955 z M 166.01492,723.60717 L 279.60869,682.93251 L 279.60869,650.2057 L 234.26272,636.17869 L 69.718853,691.81461 C 69.250983,691.81461 68.316721,692.27665 67.38246,692.27665 L 166.01492,723.60717 L 166.01492,723.60717 z"
   clip-rule="evenodd" />

	
</g>
    <text
       xml:space="preserve"
       style="font-size:3.54335523px;font-style:normal;font-variant:normal;font-weight:bold;font-stretch:normal;fill:#007dff;fill-opacity:1;stroke:none;stroke-width:1px;stroke-linecap:butt;stroke-linejoin:miter;stroke-opacity:1;font-family:Bitstream Vera Sans Mono;-inkscape-font-specification:Bitstream Vera Sans Mono Bold"
       x="-316.71548"
       y="-669.84381"
       id="text3363"
       transform="scale(-1.3399112,-0.7463181)"><tspan
         sodipodi:role="line"
         id="tspan3365"
         x="-316.71548"
         y="-669.84381">DUALSHOCK 3</tspan></text>
    <text
       xml:space="preserve"
       style="font-size:3.07532024px;font-style:normal;font-variant:normal;font-weight:normal;font-stretch:normal;text-align:start;line-height:125%;writing-mode:lr-tb;text-anchor:start;fill:#b3b3b3;fill-opacity:1;stroke:none;stroke-width:1px;stroke-linecap:butt;stroke-linejoin:miter;stroke-opacity:1;font-family:Arial;-inkscape-font-specification:Arial"
       x="-223.68372"
       y="-815.48474"
       id="text3367"
       sodipodi:linespacing="125%"
       transform="scale(-1.6252192,-0.6153016)"><tspan
         sodipodi:role="line"
         id="tspan3369"
         x="-223.68372"
         y="-815.48474">1</tspan></text>
    <text
       id="text3371"
       y="-815.48474"
       x="-220.45108"
       style="font-size:3.07532024px;font-style:normal;font-variant:normal;font-weight:normal;font-stretch:normal;text-align:start;line-height:125%;writing-mode:lr-tb;text-anchor:start;fill:#b3b3b3;fill-opacity:1;stroke:none;stroke-width:1px;stroke-linecap:butt;stroke-linejoin:miter;stroke-opacity:1;font-family:Arial;-inkscape-font-specification:Arial"
       xml:space="preserve"
       sodipodi:linespacing="125%"
       transform="scale(-1.6252192,-0.6153016)"><tspan
         y="-815.48474"
         x="-220.45108"
         id="tspan3373"
         sodipodi:role="line">2</tspan></text>
    <text
       xml:space="preserve"
       style="font-size:3.07532024px;font-style:normal;font-variant:normal;font-weight:normal;font-stretch:normal;text-align:start;line-height:125%;writing-mode:lr-tb;text-anchor:start;fill:#b3b3b3;fill-opacity:1;stroke:none;stroke-width:1px;stroke-linecap:butt;stroke-linejoin:miter;stroke-opacity:1;font-family:Arial;-inkscape-font-specification:Arial"
       x="-216.92226"
       y="-815.5238"
       id="text3375"
       sodipodi:linespacing="125%"
       transform="scale(-1.6252192,-0.6153016)"><tspan
         sodipodi:role="line"
         id="tspan3377"
         x="-216.92226"
         y="-815.5238">3</tspan></text>
    <text
       id="text3379"
       y="-815.49377"
       x="-212.86066"
       style="font-size:3.07532024px;font-style:normal;font-variant:normal;font-weight:normal;font-stretch:normal;text-align:start;line-height:125%;writing-mode:lr-tb;text-anchor:start;fill:#b3b3b3;fill-opacity:1;stroke:none;stroke-width:1px;stroke-linecap:butt;stroke-linejoin:miter;stroke-opacity:1;font-family:Arial;-inkscape-font-specification:Arial"
       xml:space="preserve"
       sodipodi:linespacing="125%"
       transform="scale(-1.6252192,-0.6153016)"><tspan
         y="-815.49377"
         x="-212.86066"
         id="tspan3381"
         sodipodi:role="line">4</tspan></text>
    <rect
       style="fill:#1a1a1a;fill-opacity:1;stroke:none;stroke-width:2;stroke-linecap:butt;stroke-linejoin:miter;stroke-miterlimit:4;stroke-dasharray:none;stroke-opacity:1"
       id="rect3383"
       width="2.0832427"
       height="2.7004998"
       x="343.44067"
       y="498.32468"
       rx="0"
       ry="1.5686275" />
    <rect
       ry="1.5686275"
       rx="0"
       y="498.32468"
       x="349.99902"
       height="2.7004998"
       width="2.0832427"
       id="rect3385"
       style="fill:#1a1a1a;fill-opacity:1;stroke:none;stroke-width:2;stroke-linecap:butt;stroke-linejoin:miter;stroke-miterlimit:4;stroke-dasharray:none;stroke-opacity:1" />
    <rect
       style="fill:#1a1a1a;fill-opacity:1;stroke:none;stroke-width:2;stroke-linecap:butt;stroke-linejoin:miter;stroke-miterlimit:4;stroke-dasharray:none;stroke-opacity:1"
       id="rect3387"
       width="2.0832427"
       height="2.7004998"
       x="355.86298"
       y="498.32468"
       rx="0"
       ry="1.5686275" />
    <rect
       ry="1.5686275"
       rx="0"
       y="498.32468"
       x="360.95535"
       height="2.7004998"
       width="2.0832427"
       id="rect3389"
       style="fill:#ff0000;fill-opacity:1;stroke:none;stroke-width:2;stroke-linecap:butt;stroke-linejoin:miter;stroke-miterlimit:4;stroke-dasharray:none;stroke-opacity:1" />
    <g
       style="display:inline"
       id="layer2"
       transform="matrix(0,1.574001e-2,-2.6605446e-2,0,386.11457,498.66384)">
      <rect
         width="33.971706"
         height="34.054432"
         x="226.23077"
         y="198.17175"
         style="fill:#ffffff;fill-opacity:1;fill-rule:nonzero;stroke:none;stroke-width:0.98877811;stroke-linecap:butt;stroke-linejoin:miter;stroke-miterlimit:4;stroke-dasharray:none;stroke-opacity:1"
         id="rect1933" />
      <path
         d="M 92.57172,87.795685 C 92.574438,101.1654 81.736903,112.00514 68.367188,112.00514 C 54.997472,112.00514 44.159937,101.1654 44.162655,87.795685 C 44.159937,74.425969 54.997472,63.586232 68.367188,63.586232 C 81.736903,63.586232 92.574438,74.425969 92.57172,87.795685 L 92.57172,87.795685 z"
         transform="matrix(1.027502,0,0,1.027502,3.164391,82.27125)"
         style="fill:#ffffff;fill-opacity:1;fill-rule:nonzero;stroke:none;stroke-width:1;stroke-linecap:butt;stroke-linejoin:miter;stroke-miterlimit:4;stroke-dasharray:none;stroke-opacity:1"
         id="path2830" />
      <path
         d="M 92.57172,87.795685 C 92.574438,101.1654 81.736903,112.00514 68.367188,112.00514 C 54.997472,112.00514 44.159937,101.1654 44.162655,87.795685 C 44.159937,74.425969 54.997472,63.586232 68.367188,63.586232 C 81.736903,63.586232 92.574438,74.425969 92.57172,87.795685 L 92.57172,87.795685 z"
         transform="matrix(0.683726,0,0,0.683726,157.7966,69.64945)"
         style="fill:#ffffff;fill-opacity:1;fill-rule:nonzero;stroke:none;stroke-width:1;stroke-linecap:butt;stroke-linejoin:miter;stroke-miterlimit:4;stroke-dasharray:none;stroke-opacity:1"
         id="path4602" />
      <path
         d="M 280.71527,156.68252 C 280.71527,156.68252 314.45387,172.15662 313.94652,172.53713 C 313.43918,172.91764 280.71527,187.8844 280.71527,187.8844 L 280.71527,156.68252 z"
         style="fill:#ffffff;fill-opacity:1;fill-rule:evenodd;stroke:none;stroke-width:1px;stroke-linecap:butt;stroke-linejoin:miter;stroke-opacity:1"
         id="path4608" />
      <path
         d="M 105.26052,171.85683 C 134.37556,169.11446 149.06431,129.49109 165.95578,129.49109 C 177.37657,129.49109 182.37292,130.02033 196.90547,130.02033"
         style="fill:none;fill-rule:evenodd;stroke:#ffffff;stroke-width:9.56692886;stroke-linecap:round;stroke-linejoin:round;stroke-miterlimit:4;stroke-dasharray:none;stroke-opacity:1"
         id="path2766" />
      <path
         d="M 139.78853,172.06998 C 169.86819,172.06998 176.95255,200.52662 199.2026,214.63263 C 202.97271,216.78698 236.97535,215.38634 239.14879,215.38634"
         style="fill:none;fill-rule:evenodd;stroke:#ffffff;stroke-width:9.56692886;stroke-linecap:butt;stroke-linejoin:round;stroke-miterlimit:4;stroke-dasharray:none;stroke-opacity:1"
         id="path3653" />
      <path
         d="M 74.032648,171.98191 L 289.16391,171.98191"
         style="fill:none;fill-rule:evenodd;stroke:#ffffff;stroke-width:9.56692886;stroke-linecap:butt;stroke-linejoin:miter;stroke-miterlimit:4;stroke-dasharray:none;stroke-opacity:1;display:inline"
         id="path5436" />
    </g>
  </g>
</svg>
